<?xml version="1.0" encoding="iso-8859-1"?>
<!-- Uploaded to: SVG Repo, www.svgrepo.com, Generator: SVG Repo Mixer Tools -->
<svg fill="#000000" height="800px" width="800px" version="1.1" id="Layer_1" xmlns="http://www.w3.org/2000/svg" xmlns:xlink="http://www.w3.org/1999/xlink" 
	 viewBox="0 0 512.001 512.001" xml:space="preserve">
<g>
	<g>
		<path d="M487.428,465.153l0.08-0.084c-0.127,0.129-12.837,12.896-28.241,12.967c-0.043,0-0.085,0-0.128,0
			c-8.604,0-16.79-4.004-25.024-12.237c-15.895-15.895-8.021-58.235-0.408-99.182c11.211-60.292,23.919-128.629-20.025-172.574
			c-14.353-14.353-29.213-23.514-44.318-27.393l46.021-46.021c1.76,5.646,4.822,10.91,9.229,15.318
			c18.295,18.296,43.707,17.128,60.102,0.734c16.393-16.393,17.072-35.555,10.857-71.693c-5.43-31.577-2.034-46.529-2.034-46.529
			s-14.953,3.395-46.529-2.034c-36.137-6.214-55.298-5.535-71.691,10.858c-16.394,16.394-17.563,41.805,0.732,60.101
			c4.408,4.408,9.672,7.469,15.319,9.229l-46.022,46.022c-3.88-15.106-13.041-29.966-27.394-44.32
			c-43.941-43.942-112.278-31.234-172.572-20.025c-40.948,7.613-83.287,15.489-99.183-0.408c-8.272-8.274-12.274-16.5-12.235-25.15
			c0.071-15.404,12.838-28.114,12.967-28.241l-0.084,0.08L23.403,0C21.044,2.249,0.349,22.83,0.005,52.136
			c-0.214,18.09,7.249,34.833,22.179,49.763l181.951,181.951l-98.064,98.064l-50.557-12.62l-8.226,32.953l30.77,7.68l-10.483,10.483
			l-50.558-12.62L8.79,440.744l49.989,12.477l12.477,49.989l32.953-8.226l-12.62-50.557l10.483-10.483l7.68,30.771l32.953-8.226
			l-12.62-50.558l98.064-98.064l181.951,181.951c14.723,14.723,31.209,22.184,49.013,22.184c0.25,0,0.5-0.001,0.751-0.005
			c29.306-0.344,49.886-21.039,52.136-23.398L487.428,465.153z M228.149,259.835L89.104,120.788
			c19.459-1.115,40.716-5.058,62.487-9.106c54.593-10.152,111.048-20.65,142.347,10.649c20.885,20.885,25.378,41.331,12.016,54.693
			c-8.439,8.44-23.004,11.952-31.229,3.726l-24.016,24.016c5.818,5.818,12.79,9.866,20.308,12.201L228.149,259.835z
			 M400.317,360.408c-4.048,21.771-7.99,43.028-9.107,62.486L252.166,283.851l42.816-42.816c2.368,7.595,6.489,14.49,12.254,20.254
			l24.016-24.016c-8.226-8.227-4.714-22.79,3.726-31.23c3.79-3.789,10.32-8.163,19.975-7.497
			c10.686,0.742,22.692,7.489,34.716,19.513C420.967,249.358,410.47,305.814,400.317,360.408z"/>
	</g>
</g>
</svg>