<?xml version="1.0" encoding="iso-8859-1"?>
<!-- Uploaded to: SVG Repo, www.svgrepo.com, Generator: SVG Repo Mixer Tools -->
<svg fill="#000000" height="800px" width="800px" version="1.1" id="Layer_1" xmlns="http://www.w3.org/2000/svg" xmlns:xlink="http://www.w3.org/1999/xlink" 
	 viewBox="0 0 512 512" xml:space="preserve">
<g>
	<g>
		<g>
			<path d="M78.025,112.298h0.385h238.106h0.385c10.69,0,19.357-8.667,19.357-19.357s-8.667-19.357-19.357-19.357h-9.222
				c-40.674-98.154-179.793-98.07-220.431,0h-9.222c-10.69,0-19.357,8.667-19.357,19.357S67.335,112.298,78.025,112.298z"/>
			<path d="M163.997,256.787c-3.046,0.585-5.248,3.249-5.248,6.349v104.889c0,3.564,2.889,6.452,6.452,6.452h64.525
				c3.563,0,6.452-2.888,6.452-6.452V263.136c0-3.101-2.204-5.766-5.248-6.349C209.508,252.682,186.718,252.432,163.997,256.787z"/>
			<path d="M366.881,400.287H28.043c-3.211,0-5.939,2.358-6.397,5.535c-2.836,19.683-1.82,88.112-1.82,86.82
				c0,10.69,8.667,19.357,19.357,19.357h316.555c10.69,0,19.357-8.667,19.357-19.357c0-65.425,0.536-70.479-1.818-86.82
				C372.821,402.645,370.092,400.287,366.881,400.287z"/>
			<path d="M38.39,374.477h88.094c3.563,0,6.452-2.888,6.452-6.452V275.5c0-4.697-4.866-7.833-9.138-5.88
				c-41.478,18.978-74.436,53.463-91.407,95.995C30.7,369.86,33.822,374.477,38.39,374.477z"/>
			<path d="M313.645,145.998c0.934-4.035-2.156-7.89-6.3-7.89H87.58c-4.142,0-7.233,3.855-6.3,7.89
				C109.656,268.585,285.264,268.602,313.645,145.998z"/>
			<path d="M472.994,262.228c-10.69,0-19.357,8.667-19.357,19.357v42.306c0,11.189-5.54,21.101-14.015,27.158v-69.465
				c0-10.69-8.667-19.357-19.357-19.357s-19.357,8.667-19.357,19.357v69.465c-8.475-6.058-14.015-15.97-14.015-27.158v-42.306
				c0-10.69-8.667-19.357-19.357-19.357s-19.357,8.667-19.357,19.357v42.306c0,5.741,0.694,11.32,1.968,16.677
				c-18.454-30.951-46.038-55.855-79.022-70.947c-4.271-1.954-9.138,1.182-9.138,5.879v92.524c0,3.564,2.889,6.452,6.452,6.452
				h88.094c3.87,0,6.69-3.315,6.436-6.908c9.395,12.294,22.648,21.479,37.938,25.748v99.325c0,10.69,8.667,19.357,19.357,19.357
				s19.357-8.667,19.357-19.357v-99.325c30.374-8.481,52.73-36.383,52.73-69.426v-42.306
				C492.352,270.895,483.685,262.228,472.994,262.228z"/>
		</g>
	</g>
</g>
</svg>